<?xml version="1.0" standalone="no"?>
<!DOCTYPE svg PUBLIC "-//W3C//DTD SVG 20010904//EN"
 "http://www.w3.org/TR/2001/REC-SVG-20010904/DTD/svg10.dtd">
<svg version="1.0" xmlns="http://www.w3.org/2000/svg"
 width="989.000000pt" height="980.000000pt" viewBox="0 0 989.000000 980.000000"
 preserveAspectRatio="xMidYMid meet">

<g transform="translate(0.000000,980.000000) scale(0.100000,-0.100000)"
fill="#000000" stroke="none">
<path d="M5705 8581 c-22 -22 -125 -83 -125 -75 0 3 7 18 15 35 16 31 13 49
-9 49 -17 0 -77 -65 -125 -138 -23 -34 -52 -68 -64 -76 -12 -8 -121 -51 -242
-96 -121 -45 -235 -93 -254 -107 -36 -28 -44 -39 -160 -218 -43 -66 -166 -232
-275 -369 -371 -466 -397 -508 -435 -696 -24 -124 -58 -231 -136 -435 -109
-282 -113 -306 -144 -727 -6 -70 -14 -136 -20 -145 -8 -14 -10 -9 -11 25 0 51
-11 54 -33 7 -20 -41 -207 -345 -213 -345 -6 0 37 111 90 231 52 122 55 135
26 119 -11 -6 -114 -49 -228 -96 -358 -148 -436 -194 -502 -294 -55 -86 -64
-136 -56 -304 l7 -142 -45 -175 c-60 -232 -70 -323 -56 -480 41 -447 182 -858
397 -1154 24 -32 43 -64 43 -71 0 -6 -37 -33 -83 -59 -357 -207 -649 -483
-991 -935 -149 -198 -190 -277 -190 -368 -1 -98 17 -137 92 -209 l65 -63 -123
0 c-68 0 -121 -2 -119 -4 2 -2 80 -6 173 -10 94 -4 172 -9 175 -11 2 -3 -67
-6 -155 -6 -271 -2 -90 -16 366 -28 537 -14 5295 -15 5573 -1 110 6 207 15
218 20 13 8 19 21 19 45 0 31 -5 37 -47 60 -27 14 -65 39 -85 57 -30 25 -49
32 -94 36 -46 4 -58 9 -71 31 -30 47 -57 73 -104 96 -53 27 -96 74 -105 113
-16 71 -48 156 -71 182 -13 16 -42 35 -64 41 -35 11 -49 9 -137 -21 -115 -38
-147 -37 -216 13 -24 18 -177 143 -338 278 -354 297 -395 328 -523 389 -153
73 -295 100 -530 99 -190 0 -317 42 -470 154 -316 232 -545 339 -885 415 -138
31 -124 19 -150 132 -49 215 -260 379 -490 380 -30 0 -72 5 -93 11 -47 13
-153 74 -201 116 -40 36 -47 49 -16 33 11 -6 20 -9 20 -7 0 2 -13 37 -30 78
-16 41 -23 65 -15 55 8 -11 15 -23 15 -28 0 -4 5 -8 10 -8 6 0 10 13 10 28 0
54 32 148 86 256 117 231 250 430 403 605 100 114 153 207 171 298 6 32 16 74
22 93 16 53 90 210 99 210 4 0 10 -13 14 -30 10 -45 76 -140 130 -188 55 -48
51 -53 -14 -16 l-46 25 35 -31 c53 -46 131 -79 221 -93 l80 -11 -38 -12 -38
-12 48 -1 c71 -2 165 26 275 79 102 51 115 51 126 4 12 -48 -27 -108 -163
-248 -72 -74 -153 -169 -181 -212 l-50 -77 0 46 c0 108 67 211 187 289 35 23
62 43 60 45 -2 2 -33 -10 -68 -25 -84 -38 -161 -109 -193 -177 -24 -49 -26
-65 -26 -181 0 -75 -7 -163 -16 -213 -11 -59 -15 -120 -12 -193 4 -98 7 -113
41 -180 20 -40 59 -97 86 -127 28 -29 51 -57 51 -61 0 -11 -49 -82 -80 -115
-52 -56 -80 -106 -80 -144 l0 -36 19 40 c10 22 28 49 40 59 l21 19 0 -44 c0
-24 5 -51 10 -59 7 -11 10 -3 10 28 0 47 17 87 48 115 21 19 21 19 20 -65 0
-83 15 -141 44 -166 12 -9 13 0 10 53 -5 72 -1 78 93 139 71 47 104 114 113
232 l8 89 13 -53 c13 -52 11 -118 -5 -156 -5 -14 -4 -17 5 -11 22 13 41 72 41
130 0 33 -12 91 -30 147 -35 111 -55 237 -40 252 7 7 10 -3 10 -30 0 -56 34
-184 65 -247 51 -102 134 -166 225 -174 37 -4 60 -2 64 6 5 7 -2 11 -19 11
-68 0 -169 79 -220 171 -29 53 -55 137 -55 178 l0 24 20 -26 c23 -29 72 -61
110 -72 22 -6 21 -4 -8 18 -72 55 -114 134 -115 219 0 56 21 108 44 108 24 0
111 75 149 128 56 78 80 161 80 281 0 140 -28 230 -95 308 -18 22 -46 61 -61
89 -15 27 -31 52 -36 55 -6 4 8 33 31 66 76 111 111 217 111 333 0 170 -70
300 -210 388 -30 19 -71 49 -90 68 -40 38 -79 55 -108 47 -35 -9 -58 14 -97
97 -43 90 -55 96 -103 50 -30 -29 -32 -29 -66 -15 -21 9 -67 15 -111 15 -42 0
-85 5 -95 10 -29 15 -69 1 -84 -29 -8 -14 -19 -64 -25 -111 -14 -108 -55 -194
-118 -249 -25 -23 -50 -41 -54 -41 -5 0 -9 -37 -10 -82 0 -67 -2 -78 -11 -58
-18 45 -3 215 31 343 35 133 141 474 163 527 9 19 43 66 77 104 116 131 156
205 240 448 28 81 72 195 97 255 63 149 181 359 223 395 34 30 36 30 100 22
36 -5 107 -8 156 -6 50 1 154 3 233 4 114 2 145 6 152 18 25 40 -69 89 -170
90 -31 0 -61 5 -68 12 -41 41 28 128 117 147 119 25 227 41 285 41 68 0 146
29 146 55 0 13 -22 15 -157 16 l-158 0 65 23 c79 28 144 60 188 93 34 26 36
31 23 51 -7 11 -16 10 -47 -6 -37 -19 -141 -52 -209 -67 -26 -6 -23 0 38 57
51 48 67 70 67 91 0 32 -17 35 -45 8z m-367 -3769 c-7 -70 -44 -147 -100 -209
-66 -71 -86 -74 -42 -6 68 105 101 167 120 221 10 28 21 52 23 52 2 0 1 -26
-1 -58z m-610 -742 c39 -92 59 -160 48 -160 -3 0 -23 24 -45 53 -52 69 -81
157 -80 244 l0 68 18 -55 c10 -30 36 -98 59 -150z m242 -286 c-20 -40 -98
-120 -108 -110 -2 2 15 33 38 68 22 34 51 85 63 111 l22 48 3 -36 c2 -22 -5
-53 -18 -81z m-943 -1280 c287 -109 471 -154 1008 -244 150 -25 268 -50 315
-67 74 -28 78 -28 277 -25 245 3 245 3 547 -118 572 -228 779 -347 1068 -616
79 -74 217 -146 323 -170 39 -8 84 -19 100 -24 17 -4 -207 -8 -516 -9 -772 -1
-1869 11 -1863 21 3 4 340 8 750 8 489 0 744 3 744 10 0 7 -253 10 -737 10
l-738 1 -20 32 c-14 22 -35 37 -66 47 -25 9 -54 24 -65 34 -10 10 -50 34 -88
52 -58 28 -82 34 -136 34 -55 0 -72 4 -110 30 -24 16 -58 32 -75 36 -61 12
-114 54 -190 149 -78 98 -99 117 -153 136 -75 26 -140 -13 -199 -118 -26 -48
-45 -69 -69 -79 -89 -37 -318 1 -719 121 -99 30 -211 59 -249 66 -92 15 -235
6 -313 -20 -34 -12 -66 -21 -70 -21 -19 1 36 24 159 66 334 115 584 272 858
542 79 78 148 142 152 142 4 0 38 -12 75 -26z m263 -1244 c68 -4 -27 -7 -270
-7 -206 0 -424 3 -485 7 -72 4 22 7 270 7 209 0 427 -3 485 -7z"/>
<path d="M4510 8059 c-146 -9 -350 -45 -504 -90 -1018 -292 -1775 -1200 -1867
-2239 -47 -528 100 -1122 384 -1550 64 -96 71 -103 54 -55 -8 22 -17 73 -21
112 -4 44 -24 125 -50 205 -94 281 -126 456 -133 735 -8 293 16 509 86 777 64
247 190 522 340 747 369 552 896 920 1526 1064 66 15 133 30 150 34 22 5 58
40 138 134 59 70 106 127 105 128 -20 5 -107 5 -208 -2z"/>
<path d="M5881 7709 c391 -268 635 -541 823 -920 117 -234 200 -500 241 -769
23 -147 31 -448 15 -595 -81 -796 -458 -1446 -1075 -1856 -114 -76 -342 -190
-470 -237 -191 -70 -444 -121 -593 -122 -64 0 -76 -12 -25 -24 16 -4 97 -37
182 -73 l153 -66 97 12 c123 16 348 73 459 115 331 127 608 312 852 571 356
376 603 935 661 1494 15 142 6 469 -16 606 -110 693 -471 1297 -1025 1712 -90
67 -353 223 -377 223 -3 0 41 -32 98 -71z"/>
<path d="M5765 6836 c-22 -8 -110 -47 -195 -89 -85 -41 -220 -103 -300 -137
-269 -116 -410 -198 -410 -238 1 -38 48 -72 100 -72 40 0 93 -27 164 -85 l57
-47 97 84 c269 231 524 408 565 393 8 -4 29 -24 46 -46 36 -44 79 -69 163 -93
45 -13 72 -30 123 -77 64 -61 88 -69 108 -38 15 24 -20 86 -69 122 -24 18 -46
40 -50 51 -16 46 73 67 125 29 47 -36 101 -117 126 -193 28 -83 68 -150 90
-150 21 0 26 15 15 45 -22 58 -57 195 -50 195 4 0 38 -27 74 -60 70 -64 113
-90 146 -90 34 0 23 23 -41 85 -33 33 -74 80 -91 105 -17 25 -43 58 -57 73
l-26 29 40 -17 c106 -46 179 -67 211 -60 20 3 34 12 34 20 0 8 -5 15 -11 15
-18 0 -159 62 -159 70 0 4 14 10 30 14 18 3 30 12 30 21 0 12 -14 15 -67 15
-94 0 -183 16 -283 50 -47 16 -112 32 -145 35 -33 4 -114 18 -180 31 -136 27
-154 28 -210 10z"/>
<path d="M5327 5975 c26 -55 28 -70 28 -187 0 -86 3 -120 9 -105 5 12 10 63
10 112 1 96 -17 168 -54 215 -16 19 -14 11 7 -35z"/>
<path d="M5385 5115 c27 -77 35 -119 36 -185 1 -49 4 -68 10 -55 21 54 0 195
-37 240 -16 20 -16 20 -9 0z"/>
</g>
</svg>
